<svg width="26" height="26" viewBox="0 0 26 26" fill="none" xmlns="http://www.w3.org/2000/svg">
<path fill-rule="evenodd" clip-rule="evenodd" d="M3.25 4.0625C2.80127 4.0625 2.4375 4.42627 2.4375 4.875V6.5C2.4375 6.94873 2.80127 7.3125 3.25 7.3125H4.875C5.32373 7.3125 5.6875 6.94873 5.6875 6.5V4.875C5.6875 4.42627 5.32373 4.0625 4.875 4.0625H3.25ZM4.875 4.875H3.25V6.5H4.875V4.875Z" fill="white"/>
<path d="M8.125 5.6875C8.125 5.23877 8.48877 4.875 8.9375 4.875H23.5625C24.0112 4.875 24.375 5.23877 24.375 5.6875C24.375 6.13623 24.0112 6.5 23.5625 6.5H8.9375C8.48877 6.5 8.125 6.13623 8.125 5.6875Z" fill="white"/>
<path d="M8.9375 11.375C8.48877 11.375 8.125 11.7388 8.125 12.1875C8.125 12.6362 8.48877 13 8.9375 13H23.5625C24.0112 13 24.375 12.6362 24.375 12.1875C24.375 11.7388 24.0112 11.375 23.5625 11.375H8.9375Z" fill="white"/>
<path d="M8.9375 17.875C8.48877 17.875 8.125 18.2388 8.125 18.6875C8.125 19.1362 8.48877 19.5 8.9375 19.5H23.5625C24.0112 19.5 24.375 19.1362 24.375 18.6875C24.375 18.2388 24.0112 17.875 23.5625 17.875H8.9375Z" fill="white"/>
<path fill-rule="evenodd" clip-rule="evenodd" d="M2.4375 11.375C2.4375 10.9263 2.80127 10.5625 3.25 10.5625H4.875C5.32373 10.5625 5.6875 10.9263 5.6875 11.375V13C5.6875 13.4487 5.32373 13.8125 4.875 13.8125H3.25C2.80127 13.8125 2.4375 13.4487 2.4375 13V11.375ZM3.25 11.375H4.875V13H3.25V11.375Z" fill="white"/>
<path fill-rule="evenodd" clip-rule="evenodd" d="M3.25 17.0625C2.80127 17.0625 2.4375 17.4263 2.4375 17.875V19.5C2.4375 19.9487 2.80127 20.3125 3.25 20.3125H4.875C5.32373 20.3125 5.6875 19.9487 5.6875 19.5V17.875C5.6875 17.4263 5.32373 17.0625 4.875 17.0625H3.25ZM4.875 17.875H3.25V19.5H4.875V17.875Z" fill="white"/>
</svg>
