<svg width="26" height="26" viewBox="0 0 26 26" fill="none" xmlns="http://www.w3.org/2000/svg">
<path d="M10.5625 1.625H15.4375C15.8862 1.625 16.25 1.98877 16.25 2.4375V4.0625H9.75V2.4375C9.75 1.98877 10.1138 1.625 10.5625 1.625ZM17.875 4.0625V2.4375C17.875 1.09131 16.7837 0 15.4375 0H10.5625C9.21631 0 8.125 1.09131 8.125 2.4375V4.0625H4.07169C4.06617 4.06244 4.06063 4.06244 4.05509 4.0625H2.4375C1.98877 4.0625 1.625 4.42627 1.625 4.875C1.625 5.32373 1.98877 5.6875 2.4375 5.6875H3.3124L4.69814 23.0092C4.83326 24.6982 6.24337 26 7.93779 26H18.0622C19.7566 26 21.1667 24.6982 21.3019 23.0092L22.6876 5.6875H23.5625C24.0112 5.6875 24.375 5.32373 24.375 4.875C24.375 4.42627 24.0112 4.0625 23.5625 4.0625H21.9449C21.9394 4.06244 21.9338 4.06244 21.9283 4.0625H17.875ZM21.0574 5.6875L19.682 22.8796C19.6145 23.7241 18.9094 24.375 18.0622 24.375H7.93779C7.09058 24.375 6.38552 23.7241 6.31796 22.8796L4.9426 5.6875H21.0574ZM8.88979 7.3139C9.33775 7.28755 9.72225 7.62933 9.7486 8.07729L10.5611 21.8898C10.5874 22.3377 10.2457 22.7222 9.79771 22.7486C9.34975 22.7749 8.96525 22.4332 8.9389 21.9852L8.1264 8.17271C8.10005 7.72475 8.44183 7.34025 8.88979 7.3139ZM17.1102 7.3139C17.5582 7.34025 17.8999 7.72475 17.8736 8.17271L17.0611 21.9852C17.0347 22.4332 16.6502 22.7749 16.2023 22.7486C15.7543 22.7222 15.4126 22.3377 15.4389 21.8898L16.2514 8.07729C16.2778 7.62933 16.6623 7.28755 17.1102 7.3139ZM13 7.3125C13.4487 7.3125 13.8125 7.67627 13.8125 8.125V21.9375C13.8125 22.3862 13.4487 22.75 13 22.75C12.5513 22.75 12.1875 22.3862 12.1875 21.9375V8.125C12.1875 7.67627 12.5513 7.3125 13 7.3125Z" fill="white"/>
</svg>
