<?xml version="1.0" encoding="iso-8859-1"?>
<!-- Generator: Adobe Illustrator 24.1.0, SVG Export Plug-In . SVG Version: 6.00 Build 0)  -->
<svg version="1.1" id="Layer_1" xmlns="http://www.w3.org/2000/svg" xmlns:xlink="http://www.w3.org/1999/xlink" x="0px" y="0px"
	 viewBox="0 0 48 48" style="enable-background:new 0 0 48 48;" xml:space="preserve">
<linearGradient id="SVGID_1_" gradientUnits="userSpaceOnUse" x1="6.2206" y1="5.2206" x2="37.4077" y2="36.4077">
	<stop  offset="0" style="stop-color:#FED100"/>
	<stop  offset="1" style="stop-color:#E36001"/>
</linearGradient>
<path style="fill:url(#SVGID_1_);" d="M24,4C13.507,4,5,12.507,5,23s8.507,19,19,19s19-8.507,19-19S34.493,4,24,4z"/>
<path style="opacity:0.05;" d="M38.998,23.485c-2.403-4.882-11.494-4.479-13.366,2.137c-7.157,0.25-7.769,12.23-0.632,12.107
	c0.857,0,6.558,0,10.995,0c3.923-3.199,6.525-7.935,6.927-13.289C42.198,23.776,40.326,23.219,38.998,23.485z"/>
<path style="opacity:0.07;" d="M38.925,23.674c-2.594-4.861-11.378-4.165-13.075,2.081c-6.67,0.22-7.012,11.007-0.351,11.064
	c0.89,0.008,7.525,0,11.405,0c3.362-3.048,5.591-7.334,5.999-12.14C42.057,23.948,40.297,23.425,38.925,23.674z"/>
<path style="opacity:0.07;" d="M38.852,23.863c-2.786-4.841-11.263-3.852-12.783,2.025c-6.183,0.19-6.254,9.968-0.069,10.022
	c0.923,0.008,8.491,0,11.815,0c2.802-2.897,4.657-6.733,5.071-10.99C41.916,24.121,40.267,23.631,38.852,23.863z"/>
<linearGradient id="SVGID_2_" gradientUnits="userSpaceOnUse" x1="29.373" y1="20.6679" x2="37.6396" y2="39.1462">
	<stop  offset="0" style="stop-color:#FCFCFC"/>
	<stop  offset="1" style="stop-color:#C3C9CD"/>
</linearGradient>
<path style="fill:url(#SVGID_2_);" d="M39.5,24c-0.245,0-0.484,0.022-0.721,0.053C37.518,22.21,35.401,21,33,21
	c-3.178,0-5.858,2.12-6.712,5.021C23.904,26.134,22,28.087,22,30.5c0,2.485,2.015,4.5,4.5,4.5c1.085,0,11.875,0,13,0
	c3.038,0,5.5-2.462,5.5-5.5C45,26.462,42.538,24,39.5,24z"/>
</svg>